<svg id="visual" viewBox="0 0 900 600" width="900" height="600" xmlns="http://www.w3.org/2000/svg" xmlns:xlink="http://www.w3.org/1999/xlink" version="1.1"><rect x="0" y="0" width="900" height="600" fill="#ffd6cb"></rect><g fill="#ffcec0"><circle r="32" cx="120" cy="333"></circle><circle r="14" cx="149" cy="437"></circle><circle r="19" cx="439" cy="573"></circle><circle r="29" cx="860" cy="375"></circle><circle r="13" cx="488" cy="87"></circle><circle r="24" cx="470" cy="276"></circle><circle r="16" cx="672" cy="245"></circle><circle r="29" cx="704" cy="524"></circle><circle r="27" cx="91" cy="58"></circle><circle r="17" cx="473" cy="6"></circle><circle r="24" cx="773" cy="105"></circle><circle r="28" cx="607" cy="54"></circle><circle r="23" cx="23" cy="348"></circle><circle r="26" cx="291" cy="183"></circle><circle r="14" cx="638" cy="459"></circle><circle r="25" cx="537" cy="259"></circle><circle r="13" cx="248" cy="47"></circle><circle r="26" cx="402" cy="110"></circle><circle r="24" cx="14" cy="139"></circle><circle r="29" cx="510" cy="385"></circle><circle r="13" cx="184" cy="348"></circle><circle r="22" cx="816" cy="537"></circle><circle r="14" cx="763" cy="178"></circle><circle r="28" cx="396" cy="252"></circle><circle r="27" cx="534" cy="191"></circle><circle r="19" cx="715" cy="439"></circle><circle r="15" cx="518" cy="509"></circle><circle r="27" cx="692" cy="28"></circle><circle r="13" cx="359" cy="551"></circle><circle r="21" cx="258" cy="332"></circle><circle r="17" cx="184" cy="260"></circle><circle r="24" cx="672" cy="101"></circle><circle r="29" cx="880" cy="227"></circle><circle r="13" cx="324" cy="266"></circle><circle r="16" cx="760" cy="268"></circle><circle r="14" cx="621" cy="383"></circle><circle r="21" cx="842" cy="33"></circle><circle r="17" cx="121" cy="155"></circle><circle r="22" cx="148" cy="521"></circle><circle r="25" cx="119" cy="598"></circle><circle r="28" cx="738" cy="348"></circle><circle r="25" cx="455" cy="186"></circle><circle r="15" cx="376" cy="475"></circle><circle r="25" cx="243" cy="592"></circle><circle r="21" cx="437" cy="386"></circle><circle r="14" cx="671" cy="593"></circle><circle r="14" cx="9" cy="578"></circle><circle r="18" cx="669" cy="320"></circle><circle r="23" cx="265" cy="405"></circle><circle r="16" cx="609" cy="258"></circle><circle r="27" cx="855" cy="141"></circle><circle r="26" cx="366" cy="320"></circle><circle r="14" cx="190" cy="104"></circle><circle r="20" cx="252" cy="514"></circle><circle r="17" cx="45" cy="495"></circle><circle r="17" cx="77" cy="257"></circle><circle r="30" cx="827" cy="437"></circle><circle r="13" cx="558" cy="11"></circle><circle r="23" cx="383" cy="183"></circle><circle r="17" cx="64" cy="431"></circle><circle r="23" cx="233" cy="216"></circle><circle r="25" cx="888" cy="463"></circle><circle r="16" cx="575" cy="131"></circle><circle r="16" cx="887" cy="593"></circle><circle r="18" cx="308" cy="469"></circle><circle r="19" cx="579" cy="564"></circle><circle r="13" cx="758" cy="597"></circle><circle r="22" cx="850" cy="309"></circle><circle r="16" cx="32" cy="207"></circle><circle r="19" cx="562" cy="334"></circle><circle r="17" cx="371" cy="19"></circle><circle r="18" cx="169" cy="18"></circle><circle r="24" cx="7" cy="25"></circle><circle r="23" cx="452" cy="449"></circle><circle r="16" cx="639" cy="161"></circle><circle r="13" cx="336" cy="387"></circle><circle r="17" cx="332" cy="132"></circle><circle r="22" cx="772" cy="27"></circle><circle r="15" cx="132" cy="220"></circle><circle r="21" cx="564" cy="430"></circle><circle r="29" cx="515" cy="583"></circle><circle r="28" cx="217" cy="452"></circle><circle r="26" cx="305" cy="16"></circle><circle r="28" cx="776" cy="484"></circle><circle r="19" cx="887" cy="528"></circle><circle r="17" cx="255" cy="123"></circle><circle r="17" cx="13" cy="269"></circle><circle r="24" cx="899" cy="89"></circle><circle r="26" cx="180" cy="577"></circle><circle r="27" cx="811" cy="221"></circle><circle r="30" cx="587" cy="499"></circle></g></svg>